# Blender 4.0.1
# www.blender.org
mtllib spider.mtl
o head.001
v 0.612149 3.575362 -4.617980
v 0.612149 2.321377 -4.617980
v 0.612149 3.575362 -3.363996
v 0.612149 2.321377 -3.363996
v -0.641836 3.575362 -4.617980
v -0.641836 2.321377 -4.617980
v -0.641836 3.575362 -3.363996
v -0.641836 2.321377 -3.363996
vn -0.0000 1.0000 -0.0000
vn -0.0000 -0.0000 1.0000
vn -1.0000 -0.0000 -0.0000
vn -0.0000 -1.0000 -0.0000
vn 1.0000 -0.0000 -0.0000
vn -0.0000 -0.0000 -1.0000
vt 0.715665 0.678017
vt 0.545181 0.918297
vt 0.545181 0.678017
vt 0.543120 0.674491
vt 0.371286 0.506888
vt 0.544280 0.503643
vt 0.371802 0.674352
vt 0.202379 0.508759
vt 0.372993 0.507377
vt 0.716016 0.262459
vt 0.544613 0.503346
vt 0.544613 0.262459
vt 0.716393 0.676185
vt 0.543711 0.506808
vt 0.715381 0.507874
vt 0.887443 0.675788
vt 0.716507 0.506819
vt 0.886909 0.504671
vt 0.715665 0.918297
vt 0.372825 0.676030
vt 0.200116 0.674370
vt 0.716016 0.503346
vt 0.542024 0.674267
vt 0.717856 0.675788
s 0
usemtl spider
f 5/1/1 3/2/1 1/3/1
f 3/4/2 8/5/2 4/6/2
f 7/7/3 6/8/3 8/9/3
f 2/10/4 8/11/4 6/12/4
f 1/13/5 4/14/5 2/15/5
f 5/16/6 2/17/6 6/18/6
f 5/1/1 7/19/1 3/2/1
f 3/4/2 7/20/2 8/5/2
f 7/7/3 5/21/3 6/8/3
f 2/10/4 4/22/4 8/11/4
f 1/13/5 3/23/5 4/14/5
f 5/16/6 1/24/6 2/17/6
o torso.001
v -0.428128 0.664653 -3.363996
v -0.428128 2.338804 -3.363996
v -0.428128 0.664653 -4.617980
v -0.428128 2.338804 -4.617980
v 0.398441 0.664653 -3.363996
v 0.398441 2.338804 -3.363996
v 0.398441 0.664653 -4.617980
v 0.398441 2.338804 -4.617980
vn -1.0000 -0.0000 -0.0000
vn -0.0000 -0.0000 -1.0000
vn 1.0000 -0.0000 -0.0000
vn -0.0000 -0.0000 1.0000
vn -0.0000 -1.0000 -0.0000
vn -0.0000 1.0000 -0.0000
vt 0.444737 0.071447
vt 0.554915 0.228964
vt 0.444737 0.228964
vt 0.111146 0.069426
vt 0.219130 0.229261
vt 0.110294 0.228197
vt 0.220926 0.072212
vt 0.332050 0.229095
vt 0.222620 0.229172
vt 0.332798 0.071528
vt 0.443416 0.227582
vt 0.333780 0.228828
vt 0.221551 0.231573
vt 0.331192 0.386970
vt 0.221551 0.386970
vt 0.875000 0.500000
vt 0.625000 0.750000
vt 0.625000 0.500000
vt 0.554915 0.071447
vt 0.219982 0.070490
vt 0.332288 0.072135
vt 0.442435 0.070282
vt 0.331192 0.231573
vt 0.875000 0.750000
s 0
usemtl spider
f 10/25/7 11/26/7 9/27/7
f 12/28/8 15/29/8 11/30/8
f 16/31/9 13/32/9 15/33/9
f 14/34/10 9/35/10 13/36/10
f 15/37/11 9/38/11 11/39/11
f 12/40/12 14/41/12 16/42/12
f 10/25/7 12/43/7 11/26/7
f 12/28/8 16/44/8 15/29/8
f 16/31/9 14/45/9 13/32/9
f 14/34/10 10/46/10 9/35/10
f 15/37/11 13/47/11 9/38/11
f 12/40/12 10/48/12 14/41/12
o left_arm.001
v -0.228640 1.060034 -2.962217
v -0.228640 2.314019 -2.962217
v -0.228640 1.060034 -3.353443
v -0.228640 2.314019 -3.353443
v 0.267841 1.060034 -2.962217
v 0.267841 2.314019 -2.962217
v 0.267841 1.060034 -3.353443
v 0.267841 2.314019 -3.353443
vn -1.0000 -0.0000 -0.0000
vn -0.0000 -0.0000 -1.0000
vn 1.0000 -0.0000 -0.0000
vn -0.0000 -0.0000 1.0000
vn -0.0000 -1.0000 -0.0000
vn -0.0000 1.0000 -0.0000
vt 0.213190 0.887173
vt 0.173074 0.775921
vt 0.213016 0.775721
vt 0.255791 0.887376
vt 0.215868 0.775923
vt 0.255791 0.775923
vt 0.215623 0.888071
vt 0.173992 0.775377
vt 0.215623 0.775377
vt 0.170345 0.888058
vt 0.133635 0.775364
vt 0.170345 0.775364
vt 0.213745 0.714181
vt 0.172557 0.773196
vt 0.172557 0.714181
vt 0.215118 0.824797
vt 0.171814 0.885984
vt 0.172908 0.824797
vt 0.173248 0.887373
vt 0.215868 0.887376
vt 0.173992 0.888071
vt 0.133635 0.888058
vt 0.213745 0.773196
vt 0.214024 0.885984
s 0
usemtl spider
f 18/49/13 19/50/13 17/51/13
f 20/52/14 23/53/14 19/54/14
f 24/55/15 21/56/15 23/57/15
f 22/58/16 17/59/16 21/60/16
f 23/61/17 17/62/17 19/63/17
f 20/64/18 22/65/18 24/66/18
f 18/49/13 20/67/13 19/50/13
f 20/52/14 24/68/14 23/53/14
f 24/55/15 22/69/15 21/56/15
f 22/58/16 18/70/16 17/59/16
f 23/61/17 21/71/17 17/62/17
f 20/64/18 18/72/18 22/65/18
o left_leg.001
v 0.301753 0.053649 -3.988833
v 0.301753 0.673948 -3.988833
v 0.301752 0.053649 -3.384040
v 0.301752 0.673948 -3.384040
v -0.323931 0.053649 -3.988833
v -0.323931 0.673948 -3.988833
v -0.323931 0.053649 -3.384040
v -0.323931 0.673948 -3.384040
vn 1.0000 -0.0000 -0.0000
vn -0.0000 -0.0000 1.0000
vn -1.0000 -0.0000 -0.0000
vn -0.0000 -0.0000 -1.0000
vn -0.0000 -1.0000 -0.0000
vn -0.0000 1.0000 -0.0000
vt 0.120769 0.454405
vt 0.079213 0.511238
vt 0.079213 0.454405
vt 0.120811 0.512556
vt 0.079602 0.629984
vt 0.079602 0.512556
vt 0.119837 0.632288
vt 0.079450 0.687739
vt 0.079450 0.632288
vt 0.119718 0.279268
vt 0.078891 0.393481
vt 0.078891 0.279268
vt 0.255953 0.891196
vt 0.215827 0.947357
vt 0.215827 0.891196
vt 0.018679 0.450056
vt 0.054331 0.388870
vt 0.054331 0.450056
vt 0.120769 0.511238
vt 0.120811 0.629984
vt 0.119837 0.687739
vt 0.119718 0.393481
vt 0.255953 0.947357
vt 0.018679 0.388870
s 0
usemtl spider
f 26/73/19 27/74/19 25/75/19
f 28/76/20 31/77/20 27/78/20
f 32/79/21 29/80/21 31/81/21
f 30/82/22 25/83/22 29/84/22
f 31/85/23 25/86/23 27/87/23
f 28/88/24 30/89/24 32/90/24
f 26/73/19 28/91/19 27/74/19
f 28/76/20 32/92/20 31/77/20
f 32/79/21 30/93/21 29/80/21
f 30/82/22 26/94/22 25/83/22
f 31/85/23 29/95/23 25/86/23
f 28/88/24 26/96/24 30/89/24
o right_arm.001
v -0.228640 1.060034 -4.616482
v -0.228640 2.314019 -4.616482
v -0.228640 1.060034 -5.007709
v -0.228640 2.314019 -5.007709
v 0.267841 1.060034 -4.616482
v 0.267841 2.314019 -4.616482
v 0.267841 1.060034 -5.007709
v 0.267841 2.314019 -5.007709
vn -1.0000 -0.0000 -0.0000
vn -0.0000 -0.0000 -1.0000
vn 1.0000 -0.0000 -0.0000
vn -0.0000 -0.0000 1.0000
vn -0.0000 -1.0000 -0.0000
vn -0.0000 1.0000 -0.0000
vt 0.213190 0.887173
vt 0.173074 0.775921
vt 0.213016 0.775721
vt 0.255791 0.887376
vt 0.215868 0.775923
vt 0.255791 0.775923
vt 0.215623 0.888071
vt 0.173992 0.775377
vt 0.215623 0.775377
vt 0.170345 0.888058
vt 0.133635 0.775364
vt 0.170345 0.775364
vt 0.213745 0.714181
vt 0.172557 0.773196
vt 0.172557 0.714181
vt 0.215118 0.824797
vt 0.171814 0.885984
vt 0.172908 0.824797
vt 0.173248 0.887373
vt 0.215868 0.887376
vt 0.173992 0.888071
vt 0.133635 0.888058
vt 0.213745 0.773196
vt 0.214024 0.885984
s 0
usemtl spider
f 34/97/25 35/98/25 33/99/25
f 36/100/26 39/101/26 35/102/26
f 40/103/27 37/104/27 39/105/27
f 38/106/28 33/107/28 37/108/28
f 39/109/29 33/110/29 35/111/29
f 36/112/30 38/113/30 40/114/30
f 34/97/25 36/115/25 35/98/25
f 36/100/26 40/116/26 39/101/26
f 40/103/27 38/117/27 37/104/27
f 38/106/28 34/118/28 33/107/28
f 39/109/29 37/119/29 33/110/29
f 36/112/30 34/120/30 38/113/30
o right_leg.001
v 0.301753 0.053649 -4.608715
v 0.301753 0.673948 -4.608715
v 0.301752 0.053649 -4.003922
v 0.301752 0.673948 -4.003922
v -0.323931 0.053649 -4.608715
v -0.323931 0.673948 -4.608715
v -0.323931 0.053649 -4.003922
v -0.323931 0.673948 -4.003922
vn 1.0000 -0.0000 -0.0000
vn -0.0000 -0.0000 1.0000
vn -1.0000 -0.0000 -0.0000
vn -0.0000 -0.0000 -1.0000
vn -0.0000 -1.0000 -0.0000
vn -0.0000 1.0000 -0.0000
vt 0.120769 0.454405
vt 0.079213 0.511238
vt 0.079213 0.454405
vt 0.120811 0.512556
vt 0.079602 0.629984
vt 0.079602 0.512556
vt 0.119837 0.632288
vt 0.079450 0.687739
vt 0.079450 0.632288
vt 0.119718 0.279268
vt 0.078891 0.393481
vt 0.078891 0.279268
vt 0.255953 0.891196
vt 0.215827 0.947357
vt 0.215827 0.891196
vt 0.018679 0.450056
vt 0.054331 0.388870
vt 0.054331 0.450056
vt 0.120769 0.511238
vt 0.120811 0.629984
vt 0.119837 0.687739
vt 0.119718 0.393481
vt 0.255953 0.947357
vt 0.018679 0.388870
s 0
usemtl spider
f 42/121/31 43/122/31 41/123/31
f 44/124/32 47/125/32 43/126/32
f 48/127/33 45/128/33 47/129/33
f 46/130/34 41/131/34 45/132/34
f 47/133/35 41/134/35 43/135/35
f 44/136/36 46/137/36 48/138/36
f 42/121/31 44/139/31 43/122/31
f 44/124/32 48/140/32 47/125/32
f 48/127/33 46/141/33 45/128/33
f 46/130/34 42/142/34 41/131/34
f 47/133/35 45/143/35 41/134/35
f 44/136/36 42/144/36 46/137/36
